<?xml version="1.0" standalone="no"?>
<!DOCTYPE svg PUBLIC "-//W3C//DTD SVG 20010904//EN"
 "http://www.w3.org/TR/2001/REC-SVG-20010904/DTD/svg10.dtd">
<svg version="1.0" xmlns="http://www.w3.org/2000/svg"
 width="700.000000pt" height="700.000000pt" viewBox="0 0 700.000000 700.000000"
 preserveAspectRatio="xMidYMid meet">
<metadata>
Created by potrace 1.14, written by Peter Selinger 2001-2017
</metadata>
<g transform="translate(0.000000,700.000000) scale(0.100000,-0.100000)"
fill="#000000" stroke="none">
<path d="M1087 6118 c-84 -12 -154 -70 -190 -159 l-22 -54 0 -2405 1 -2405 23
-53 c29 -65 103 -133 165 -153 39 -13 371 -15 2443 -14 l2398 0 54 30 c58 32
110 87 144 150 l21 40 1 2395 c1 2649 6 2450 -64 2531 -40 48 -93 83 -141 95
-42 9 -4765 12 -4833 2z m4450 -581 c5 -6 5 -4068 0 -4074 -6 -5 -4069 -5
-4074 1 -4 3 -6 3827 -3 4048 0 22 5 27 28 30 43 5 4043 0 4049 -5z"/>
<path d="M2043 4667 l2 -292 290 0 290 0 0 290 0 290 -292 2 -291 1 1 -291z"/>
<path d="M3210 4666 l0 -291 873 0 872 0 0 290 0 290 -872 2 -873 1 0 -292z"/>
<path d="M2068 3790 l-23 -6 -2 -287 -2 -287 110 0 c60 -1 165 -1 234 -1 69 0
151 0 183 1 l57 0 0 290 1 290 -81 0 c-44 1 -164 2 -267 3 -103 1 -197 0 -210
-3z"/>
<path d="M3243 3792 l-33 -3 0 -290 c0 -224 3 -289 13 -289 41 0 1541 0 1629
0 l107 0 -1 290 c0 160 -3 290 -7 290 -74 2 -1686 4 -1708 2z"/>
<path d="M2043 2335 l2 -290 288 -2 c158 -1 288 1 288 5 5 23 4 572 -1 573 -3
1 -134 2 -292 3 l-287 1 2 -290z"/>
<path d="M3210 2334 l0 -292 874 0 874 0 0 292 0 291 -874 0 -874 0 0 -291z"/>
</g>
</svg>
